<svg width="980" height="768" viewBox="0 0 980 768" fill="none" xmlns="http://www.w3.org/2000/svg">
  <!-- Background -->
  <rect width="980" height="768" fill="#F5F7FA"/>
  
  <!-- Bookshelf -->
  <rect x="140" y="90" width="140" height="280" fill="#E5E7EB"/>
  <rect x="140" y="120" width="140" height="8" fill="#D1D5DB"/>
  <rect x="140" y="200" width="140" height="8" fill="#D1D5DB"/>
  <rect x="140" y="280" width="140" height="8" fill="#D1D5DB"/>
  
  <!-- Books -->
  <rect x="150" y="125" width="15" height="70" fill="#3B82F6"/>
  <rect x="170" y="125" width="12" height="70" fill="#10B981"/>
  <rect x="185" y="125" width="18" height="70" fill="#F59E0B"/>
  
  <!-- Plant pot -->
  <path d="M166 689 L234 689 L224 730 L176 730 Z" fill="#374151"/>
  <ellipse cx="200" cy="685" rx="34" ry="10" fill="#4B5563"/>
  
  <!-- Plant leaves -->
  <ellipse cx="185" cy="650" rx="20" ry="35" fill="#2563EB" transform="rotate(-25 185 650)"/>
  <ellipse cx="200" cy="640" rx="22" ry="38" fill="#2563EB" transform="rotate(-10 200 640)"/>
  <ellipse cx="215" cy="650" rx="20" ry="35" fill="#2563EB" transform="rotate(25 215 650)"/>
  <ellipse cx="190" cy="670" rx="18" ry="30" fill="#2563EB" transform="rotate(-15 190 670)"/>
  <ellipse cx="210" cy="670" rx="18" ry="30" fill="#2563EB" transform="rotate(15 210 670)"/>
  
  <!-- Person illustration -->
  <ellipse cx="820" cy="280" rx="40" ry="45" fill="#FCA5A5"/>
  <path d="M820 250 Q835 240 845 255" stroke="#1F2937" stroke-width="3" fill="none"/>
  <circle cx="810" cy="270" r="3" fill="#1F2937"/>
  <circle cx="830" cy="270" r="3" fill="#1F2937"/>
  <path d="M815 285 Q820 290 825 285" stroke="#1F2937" stroke-width="2" fill="none"/>
  
  <!-- Person body -->
  <rect x="775" y="320" width="90" height="120" rx="15" fill="#2563EB"/>
  <rect x="795" y="325" width="50" height="110" fill="#1F2937"/>
  
  <!-- Arms -->
  <rect x="720" y="350" width="60" height="30" rx="15" fill="#2563EB"/>
  <ellipse cx="750" cy="365" rx="15" ry="18" fill="#FCA5A5"/>
  <rect x="860" y="350" width="60" height="30" rx="15" fill="#2563EB"/>
  <ellipse cx="890" cy="365" rx="15" ry="18" fill="#FCA5A5"/>
  
  <!-- Legs -->
  <rect x="780" y="435" width="35" height="140" fill="#6B7280"/>
  <rect x="825" y="435" width="35" height="140" fill="#6B7280"/>
  
  <!-- Shoes -->
  <ellipse cx="797" cy="575" rx="25" ry="12" fill="#1F2937"/>
  <ellipse cx="842" cy="575" rx="25" ry="12" fill="#1F2937"/>
  
  <!-- Checkmark speech bubble -->
  <rect x="795" y="35" width="110" height="90" rx="15" fill="#BFDBFE"/>
  <path d="M850 120 L860 130 L840 135" fill="#BFDBFE"/>
  <circle cx="850" cy="80" r="30" fill="#2563EB"/>
  <path d="M835 80 L845 90 L870 65" stroke="white" stroke-width="5" stroke-linecap="round" stroke-linejoin="round" fill="none"/>
</svg>
